<?xml version="1.0" standalone="no"?>
<!DOCTYPE svg PUBLIC "-//W3C//DTD SVG 20010904//EN"
 "http://www.w3.org/TR/2001/REC-SVG-20010904/DTD/svg10.dtd">
<svg version="1.0" xmlns="http://www.w3.org/2000/svg"
 width="192.000000pt" height="192.000000pt" viewBox="0 0 192.000000 192.000000"
 preserveAspectRatio="xMidYMid meet">
<metadata>
Created by potrace 1.14, written by Peter Selinger 2001-2017
</metadata>
<g transform="translate(0.000000,192.000000) scale(0.100000,-0.100000)"
fill="#000000" stroke="none">
<path d="M299 1897 c-121 -41 -200 -111 -257 -227 l-37 -75 -3 -610 c-2 -537
0 -617 14 -665 45 -155 157 -266 307 -306 40 -10 177 -13 632 -14 618 0 639 1
734 49 59 30 144 113 175 171 55 102 56 105 55 745 0 542 -2 595 -18 647 -36
112 -107 201 -202 253 -100 54 -105 55 -744 54 -586 0 -590 0 -656 -22z"/>
</g>
</svg>
